<svg version="1" xmlns="http://www.w3.org/2000/svg" width="1333.333" height="1333.333" viewBox="0 0 1000.000000 1000.000000"><path d="M391.5 71.5C319 78.2 251.6 102.1 191 142.3c-11.8 7.9-27.6 19.5-36.5 27.1-3.3 2.8-7.6 6.4-9.5 8.1-1.9 1.6-10.7 10.2-19.6 19-33.5 33.4-57.3 66.3-78.9 109C21.1 355.8 5.7 409.8 1.3 464.3c-1.3 15.1-.9 63.1.5 77.2 14.9 145.2 101.3 272.8 229.7 339.2 44.6 23 97.3 39.5 143 44.9 3.3.3 6.9.8 7.9 1 10.5 1.9 67.3 2.6 83.6 1.1 24.2-2.3 50.8-7 72.6-12.8 33.4-8.8 72.1-24.5 99.3-40.1 4.6-2.6 8.5-4.8 8.7-4.8.5 0 10.7-6.5 22.4-14.3 79.2-52.9 138.1-131 168.4-223.2 11.4-34.9 17.7-67.8 20.5-107.6.9-12.1.6-47.2-.3-57.4-3-30.1-7.2-55.2-13-76.8-1.9-7.1-3.7-13.2-4.1-13.5-1.6-1.6-28.2 14.7-41.1 25.2-19.3 15.7-35.4 33.3-49 53.6-20.1 30.2-32.5 63.6-37.8 101.5-1.3 9.6-1.5 35.2-.3 42 .3 1.6 1.3 8.6 2.2 15.5 2.3 18.2 5.6 44 7.2 55.5 2.7 20.3-1.5 34.5-13.6 46.4-7.6 7.4-17.4 11.8-30.6 13.5-2.2.3-20.2 2.6-40 5.1-19.8 2.5-37.3 4.8-39 5-2.6.4-19 2.5-32.5 4.1-18 2.2-32.2 4.5-36 5.8-19.3 6.7-36.3 21.2-45.4 38.8-3.3 6.4-3.5 7.2-2.2 9.6.7 1.5 4.2 11.5 7.6 22.2 3.4 10.7 8.2 25.4 10.5 32.5 2.4 7.2 4.6 14.3 4.9 15.7.7 4.2-1.2 9.6-4.9 13.6l-3.3 3.7-8.4-3.4c-24.7-9.9-55.3-27.6-78-45.1-15-11.5-44.2-40.5-55.4-55-11.8-15.3-11.5-14.5-7.9-17.6 4.9-4.3 11.4-6.8 18-6.8 6.1-.1 36.8 1.4 39.5 1.9.8.1 8 .6 16 1l14.6.7 6.3-4.8c17-12.8 28-34.5 28.3-55.9 0-4.4-1.8-22.4-4.1-40-5-38.4-10.5-81.2-12.7-99-2.7-21.5-1.2-30.8 6.7-42.6 6-8.9 14.8-15.6 24.6-18.5 2.6-.8 15.3-2.8 28.3-4.4 12.9-1.7 34.1-4.4 47-6 26.6-3.4 32.1-5.1 55.2-16.6 27.2-13.5 46.2-27.1 68.6-48.9 32.2-31.2 54.5-67.4 68.5-111 3.5-10.8 8-29.6 9.2-38.5.5-3.6-2-27.9-5-47-.2-1.4-.4-3.7-.4-5.2-.1-3.4-6-10.6-22.2-26.8-54.9-55.2-121.4-93.5-196.4-113-23.4-6.2-39.1-9-69-12.5-10.9-1.3-63.1-1.3-77 0zm220 50.1c8.7 1.1 18.9 7.7 24.4 15.8 5.5 8 7.1 14.7 8.6 36.6.3 4.7.8 11 1 14 .2 3 .7 9.3 1 14 .3 4.7.8 11 1 14 3.5 43.4 6.7 91.3 6.7 99 0 9.3-2 16.7-6.8 25.5-4 7.2-14 16.7-21.5 20.4-7.9 3.8-8.5 4-80.9 17.2-31 5.7-43.2 9.3-61.4 18.5-36.9 18.7-62.9 48.1-74.4 84.5-7 22-8.4 42-4.8 69.9.3 2.5 2.6 20.2 5.1 39.5 6.7 52.1 7 55.4 5.8 63.4-2.1 13.2-9 23.9-19.1 29.4-18.8 10.2-53.5 7-82.7-7.5-40.7-20.3-64.3-65.1-68.2-129.5-.7-11.8 1.7-20.4 8.1-28.9 7.8-10.6 12.6-13.4 29.3-17.4 11.8-2.9 14.4-3.9 23.8-9.6 16.1-9.7 28.7-19.5 42.6-33.3 30.8-30.8 51-68.2 59.4-110.6 3.3-16.5 3.3-19.7 0-61-.2-3.3-.7-9.6-1-14-.3-4.4-.8-10.3-1-13-.2-2.8-.7-9.1-1-14-.3-5-.8-11.3-1-14-1.1-12.7-1.9-26.6-1.8-32.4.3-13.3 6.8-26.9 17.6-36.8 10.2-9.2 14-10.5 51.7-17.4 23.3-4.2 33.1-6 56-10.3 17-3.2 67.7-12.4 71-12.8 2.5-.4 5.3-.2 12.5.8zm-306.4 77.5c2 1 4.9 3.3 6.4 5.1 2.4 2.8 10.7 19.2 23 45.3 1.8 3.8 9.2 19.4 16.4 34.5 7.3 15.1 13.8 29.7 14.6 32.4 1.9 6.4 1.9 17.6 0 24.9-3.1 11.9-5.8 15.5-27.1 35.7-4.9 4.7-17.2 16.4-27.4 26-10.1 9.6-22.5 21.4-27.5 26.2-4.9 4.7-10.2 9.6-11.7 10.7-10.3 8.1-24.5 6.7-31.8-3.2-4.5-6.1-8.8-22.5-12.2-46.2-1.7-12.1-1.7-51.4 0-63 5.2-34.2 16.1-67 31.5-94 8.2-14.5 18.4-29.1 22.2-32.1 7-5.3 15.9-6.2 23.6-2.3z"/><path d="M545.5 185.5c-6.6 1.3-24.8 4.6-40.5 7.5-15.7 2.9-30.7 6.1-33.3 7.3-6.1 2.6-13 10.2-15.2 16.8-1.4 4.2-1.6 7.2-1 16.7.3 6.5.8 12.4 1 13.2.2.8.6 7.1 1 14s.8 13.8 1 15.5c.2 1.6.6 7.5 1 13 1.9 27.1 3.4 32 11.8 36.9 7.5 4.4 9.1 4.3 51.2-3.3 45.7-8.3 47.9-8.8 52.5-11.1 8.1-4.2 15.1-14.8 15.3-23.3.1-4.3-1.3-28-1.8-30.7-.2-.8-.6-6.7-1-13-.3-6.3-.8-13.1-1-15-.2-1.9-.7-8.5-1-14.5-.4-6.1-1.1-12.9-1.6-15.3-1.4-6.6-5.4-11.8-11.2-14.7-6.3-3.1-11-3.1-27.2 0zM307 534.7c-29.7 7.3-28.8 6.9-34.5 12.7-8.6 8.6-9.5 15.9-5.4 40.1 3 17.7 11.6 36.2 21.7 46.8 12.3 12.9 31.9 21 51.2 21 14.2 0 22.2-4.1 26.7-14 3-6.6 3.2-13.4.9-30.3-1.8-13.1-5.4-41-6.2-48.5-1.5-13.4-4.1-19.3-10.9-25.3-5.6-4.9-12-7.2-19.4-7.1-3.1.1-13.9 2.2-24.1 4.6zM286 243.2c-5.4 2.8-12.4 12.7-20.5 29.3-15.3 31.3-20.4 64-15.1 97 3.6 22.5 7.9 29.6 17.8 29.5 6.5-.1 5.4.7 37.2-29.4 32.3-30.7 32.1-30.3 32.1-44.1v-9l-16-33.5c-8.7-18.4-16.6-34.5-17.5-35.7-2-2.8-8.1-6.3-11.2-6.3-1.3 0-4.4 1-6.8 2.2zM948.5 120.9c-6 1-7.4 1.2-38.5 5.1-13.5 1.7-25.6 3.3-27 3.5-1.4.2-4.5.6-7 .9-45.1 5.4-59.5 7.8-64.3 10.4-8.3 4.5-13 12.6-12.9 22.2 0 3 1 12.2 2.1 20.5 1.1 8.2 3.8 29.6 6.1 47.5 2.2 17.9 4.5 35.4 5 39 1 6.8 1.3 9 3 23.4 1.7 14 5.5 20.8 13.9 25 7.8 4 12.7 4.2 33.1 1.1 1.4-.2 18.7-2.5 38.5-5 86.6-11 80.8-10.1 85.5-12.5 5.5-2.8 11.4-9.8 13-15.4 1.5-5.4 1-11.3-3.4-45.1-1.3-10.5-2.7-21.5-3.1-24.5-.3-3-.8-6.6-1-8-.2-1.4-.7-4.3-.9-6.5-8.1-63.6-8.2-63.7-10.3-67.9-5.6-11.1-17-16-31.8-13.7zM615.5 542.1c-8 1.1-8.1 1.1-46 6-18.1 2.3-34.7 4.5-36.7 5-4.5 1.2-11.5 6.3-14.5 10.9-4.9 7.1-5.1 12-1.8 35.5.2 1.6 2 15.8 4 31.5 4.2 33.3 5.2 39.5 7 43 2.1 4 6.7 8.6 10.9 10.8 6.9 3.7 11 3.8 33.1.7 1.7-.3 17.4-2.3 35-4.5 17.6-2.3 33.1-4.4 34.5-4.7 7.3-1.7 13.2-6.7 16.9-14.1 2.9-5.7 3-10.6.5-28.7-.2-1.7-1.5-12-2.9-23-5.7-45-6.6-50.9-8.2-53.9-6.2-12-16.6-16.8-31.8-14.5zM379.4 786.4c-1.8 1.4-1.7 1.7 3.1 6.7 20.9 21.7 40.4 37.7 63.4 52.3 29.9 18.9 33.2 17.8 19-6.2-15.6-26.5-21.2-32.8-34.9-40.1-5.3-2.8-42.6-14.1-46.7-14.1-1.1 0-2.8.6-3.9 1.4z"/></svg>